<svg xmlns="http://www.w3.org/2000/svg" width="17" height="20"><g stroke="#333" fill="none" fill-rule="evenodd"><path fill="#F4F4F4" stroke-width="1.034" d="M4.38 18.385h7.496a2.068 2.068 0 002.068-2.069v-.03l-.189-12.801a2.067 2.067 0 00-2.555-1.98L3.893 3.277a2.068 2.068 0 00-1.58 2.01v11.03c0 1.142.925 2.068 2.068 2.068z"/><path fill="#F4F4F4" stroke-width="1.034" d="M14.752 3.878c.429 0 .817.173 1.097.454.281.28.455.669.455 1.097h0v11.513c0 .428-.174.816-.455 1.097-.28.28-.668.454-1.097.454h0H3.985a1.55 1.55 0 01-1.552-1.551h0V5.429c0-.428.174-.816.455-1.097.28-.28.668-.454 1.097-.454h0z"/><path d="M5.999 15.099h6.74a.357.357 0 010 .713h-6.74A.357.357 0 016 15.099zm0-2.138h3.76a.357.357 0 01-.001.713H6a.357.357 0 010-.713zm0-2.139h6.74a.357.357 0 010 .713h-6.74A.357.357 0 016 10.822zm0-2.138h3.76a.357.357 0 01-.001.713H6a.357.357 0 010-.713zm0-2.139h6.74a.357.357 0 010 .713h-6.74A.357.357 0 016 6.545z" fill="#333" stroke-width=".517"/></g></svg>