<svg xmlns="http://www.w3.org/2000/svg" width="20" height="20"><g transform="translate(3 3)" stroke="#999" fill="none" fill-rule="evenodd"><path fill="#999" stroke-width=".611" d="M7.683 11.83c1.802 0 3.394.727 4.298 1.842-1.311.91-2.749 1.389-4.298 1.389-1.632 0-3.14-.53-4.363-1.428l-.102-.079.192-.162c1.121-.91 2.468-1.487 3.97-1.555zm0-8.032c.783 0 1.381.308 1.791.82.472.59.697 1.435.697 2.367 0 .93-.227 1.774-.699 2.364-.41.513-1.009.822-1.789.822s-1.378-.31-1.789-.822c-.472-.59-.7-1.434-.7-2.364 0-.932.226-1.777.698-2.367.41-.512 1.008-.82 1.791-.82z"/><circle cx="7.683" cy="7.683" r="7.683"/></g></svg>