<svg xmlns="http://www.w3.org/2000/svg" width="21" height="21"><defs><filter id="a" width="106.9%" height="100.9%" x="-3.5%" y="-.4%" filterUnits="objectBoundingBox"><feOffset dy="2" in="SourceAlpha" result="shadowOffsetOuter1"/><feGaussianBlur in="shadowOffsetOuter1" result="shadowBlurOuter1" stdDeviation="12"/><feColorMatrix in="shadowBlurOuter1" result="shadowMatrixOuter1" values="0 0 0 0 0 0 0 0 0 0 0 0 0 0 0 0 0 0 0.185041521 0"/><feMerge><feMergeNode in="shadowMatrixOuter1"/><feMergeNode in="SourceGraphic"/></feMerge></filter></defs><g filter="url(#a)" transform="translate(-133 -1944)" fill="#FFF"><path d="M142.98 1944.98c-5.412 0-9.8 4.388-9.8 9.8 0 5.412 4.388 9.8 9.8 9.8 5.412 0 9.8-4.388 9.8-9.8 0-5.412-4.388-9.8-9.8-9.8zm4.9 9.82a.784.784 0 01-.231.568l-3.226 3.216a.79.79 0 01-1.118-1.115l1.89-1.891h-6.331a.784.784 0 110-1.568h6.348l-1.907-1.907a.789.789 0 01.354-1.322.793.793 0 01.764.204l3.226 3.217a.785.785 0 01.231.558v.04z"/></g></svg>