<svg xmlns="http://www.w3.org/2000/svg" width="213" height="38"><g fill="none" fill-rule="evenodd"><path fill="#333" d="M123.02.077c8.092.366 12.972 5.13 12.972 12.234 0 4.402-2.012 7.843-5.38 9.802.833 2.702 4.492 14.3 4.714 15.272-1.72-.001-7.743.017-9.29-.001l-4.197-13.448h-2.545l-.001 13.448h-9.092V.077zm-3.726 7.883v8.388h3.727c2.216 0 3.793-1.941 3.793-4.048 0-2.105-1.698-4.34-3.792-4.34h-3.728zM95.526.077c8.09.366 12.97 5.13 12.97 12.234 0 7.106-5.242 11.707-12.97 11.617l-3.728.008v13.456l-9.092-.008V.077zM91.798 7.96v8.388h3.727c2.216 0 3.793-1.941 3.793-4.048 0-2.105-1.698-4.34-3.792-4.34h-3.728zM71.455.078h9.548L71.96 18.912l9.03 18.472-9.864-.001-4.018-8.366-4.016 8.366-9.864-.001 9.028-18.477L53.215.079l9.548-.002 4.346 8.895zm66.301 37.306h22.365v-6.591h-13.273v-9.147h13.273v-6.578h-13.273v-8.41h13.273V.077h-22.365zm-110 0h22.365v-6.591H36.848v-9.147h13.273v-6.578H36.848v-8.41h13.273V.077H27.756z"/><path fill="#E63B11" d="M11.64.082V17.95L24.235.082z"/><path fill="#333" d="M0 37.384h21.82v-6.585H9.093V.077H0zm210.828-5.627c1.846-4.177 2.33-11.442-4.298-15.417-5.67-3.571-9.202-4.076-9.202-6.69 0-4.499 7.315-4.186 7.315.606 1.655-.696 6.487-2.653 6.487-2.653s-.706-7.84-10.674-7.547c-9.918.262-10.533 7.063-10.755 7.9-.172.514-1.262 7.113 3.047 10.594 2.028 1.634 5.054 2.966 7.345 4.399 1.977 1.19 3.945 2.098 3.884 4.56-.03 1.836-1.937 3.269-3.622 3.28-.676 0-4.187-.283-5.55-5.268-1.674.656-5.256 2.11-7.011 2.765.948 3.39 3.34 8.535 10.906 9.08 4.288.293 9.747-.323 12.128-5.61m-25.958.001c1.847-4.177 2.331-11.442-4.298-15.417-5.67-3.571-9.201-4.076-9.201-6.69 0-4.499 7.315-4.186 7.315.606 1.654-.696 6.487-2.653 6.487-2.653S184.467-.237 174.5.056c-9.918.262-10.534 7.063-10.756 7.9-.171.514-1.26 7.113 3.047 10.594 2.028 1.634 5.055 2.966 7.345 4.399 1.978 1.19 3.945 2.098 3.885 4.56-.03 1.836-1.937 3.269-3.622 3.28-.676 0-4.187-.283-5.55-5.268-1.674.656-5.256 2.11-7.011 2.765.948 3.39 3.34 8.535 10.906 9.08 4.288.293 9.746-.323 12.127-5.61"/></g></svg>