<svg xmlns="http://www.w3.org/2000/svg" width="152" height="27"><g fill="none" fill-rule="evenodd"><path fill="#333" d="M88.103.387c5.754.26 9.224 3.649 9.224 8.7 0 3.13-1.43 5.577-3.826 6.97.593 1.922 3.195 10.17 3.353 10.86-1.223 0-5.506.013-6.606 0l-2.985-9.563h-1.81v9.563h-6.466V.387zm.001 5.606h-2.65v5.965h2.65c1.575 0 2.697-1.38 2.697-2.878 0-1.498-1.208-3.087-2.697-3.087zM68.552.387c5.753.26 9.223 3.649 9.223 8.7 0 5.053-3.728 8.325-9.224 8.261l-2.65.006v9.569l-6.466-.006V.387zm0 5.606H65.9v5.965h2.651c1.576 0 2.697-1.38 2.697-2.878 0-1.498-1.208-3.087-2.697-3.087zM51.434.388h6.79l-6.431 13.394 6.422 13.135-7.014-.001-2.858-5.949-2.856 5.949h-7.014l6.42-13.139L38.464.389l6.789-.001 3.091 6.325zm47.148 26.529h15.904V22.23h-9.439v-6.505h9.439v-4.677h-9.439v-5.98h9.439V.388H98.582zm-78.222 0h15.903V22.23h-9.438v-6.505h9.438v-4.677h-9.438v-5.98h9.438V.388H20.36z"/><path fill="#E63B11" d="M8.899.391v12.706L17.856.391z"/><path fill="#333" d="M.622 26.917h15.517v-4.683H7.088V.388H.622zm149.922-4.002c1.313-2.97 1.657-8.136-3.057-10.962-4.032-2.54-6.543-2.899-6.543-4.757 0-3.2 5.202-2.978 5.202.43 1.176-.495 4.613-1.887 4.613-1.887s-.502-5.574-7.59-5.366c-7.053.186-7.491 5.022-7.649 5.617-.122.366-.897 5.059 2.167 7.534 1.442 1.162 3.594 2.11 5.223 3.128 1.406.847 2.805 1.492 2.762 3.243-.021 1.306-1.377 2.324-2.575 2.332-.481 0-2.978-.201-3.946-3.746-1.191.467-3.738 1.5-4.987 1.966.675 2.411 2.375 6.07 7.756 6.457 3.05.209 6.93-.23 8.624-3.989m-18.459 0c1.313-2.97 1.658-8.136-3.056-10.962-4.032-2.54-6.543-2.899-6.543-4.757 0-3.2 5.201-2.978 5.201.43 1.177-.495 4.614-1.887 4.614-1.887S131.798.165 124.71.373c-7.053.186-7.49 5.022-7.648 5.617-.122.366-.897 5.059 2.167 7.534 1.442 1.162 3.594 2.11 5.223 3.128 1.406.847 2.805 1.492 2.762 3.243-.022 1.306-1.378 2.324-2.576 2.332-.48 0-2.977-.201-3.946-3.746-1.19.467-3.738 1.5-4.986 1.966.674 2.411 2.375 6.07 7.756 6.457 3.049.209 6.93-.23 8.623-3.989"/></g></svg>