<svg xmlns="http://www.w3.org/2000/svg" width="109" height="20"><g fill="none" fill-rule="evenodd"><path fill="#FFF" d="M62.972.015c4.142.187 6.64 2.63 6.64 6.274 0 2.257-1.03 4.022-2.755 5.027.427 1.385 2.3 7.333 2.414 7.831-.88 0-3.964.009-4.756 0l-2.148-6.897h-1.303v6.897H56.41V.015zm0 4.043h-1.908v4.301h1.908c1.134 0 1.941-.995 1.941-2.076 0-1.08-.869-2.225-1.94-2.225zM48.898.015c4.141.187 6.64 2.63 6.64 6.274s-2.685 6.003-6.64 5.957l-1.909.004v6.9l-4.653-.003V.015zm0 4.043h-1.909v4.301h1.909c1.134 0 1.94-.995 1.94-2.076 0-1.08-.869-2.225-1.94-2.225zM36.576.015h4.888l-4.629 9.659 4.622 9.473-5.049-.001-2.057-4.29-2.056 4.29h-5.049l4.621-9.476L27.24.016l4.887-.001 2.225 4.561zm33.939 19.132h11.447v-3.38h-6.794v-4.691h6.794V7.702h-6.794V3.39h6.794V.015H70.515zm-56.307 0h11.448v-3.38h-6.794v-4.691h6.794V7.702h-6.794V3.39h6.794V.015H14.208z"/><path fill="#E63B11" d="M5.958.018V9.18L12.405.018z"/><path fill="#FFF" d="M0 19.147h11.169V15.77H4.654V.015H0zm107.918-2.887c.945-2.141 1.193-5.866-2.2-7.905-2.902-1.832-4.71-2.09-4.71-3.43 0-2.308 3.745-2.148 3.745.31.846-.357 3.32-1.36 3.32-1.36s-.361-4.02-5.464-3.87c-5.076.134-5.392 3.62-5.505 4.05-.088.264-.646 3.648 1.56 5.433 1.038.838 2.587 1.521 3.76 2.256 1.012.61 2.019 1.076 1.988 2.339-.016.941-.992 1.676-1.854 1.681-.346 0-2.144-.145-2.84-2.7-.858.336-2.692 1.08-3.59 1.417.485 1.738 1.71 4.377 5.583 4.657 2.195.15 4.989-.166 6.207-2.877m-13.287-.001c.946-2.141 1.193-5.866-2.2-7.905-2.902-1.832-4.71-2.09-4.71-3.43 0-2.308 3.745-2.148 3.745.31.847-.357 3.32-1.36 3.32-1.36s-.361-4.02-5.464-3.87c-5.076.134-5.391 3.62-5.505 4.05-.088.264-.646 3.648 1.56 5.433 1.038.838 2.587 1.521 3.76 2.256 1.012.61 2.019 1.076 1.988 2.339-.016.941-.992 1.676-1.854 1.681-.346 0-2.144-.145-2.84-2.7-.858.336-2.692 1.08-3.59 1.417.485 1.738 1.71 4.377 5.583 4.657 2.195.15 4.989-.166 6.207-2.877"/></g></svg>