<svg xmlns="http://www.w3.org/2000/svg" width="15" height="17"><path d="M7.567 16C3.615 16 .4 12.816.4 8.902a7.037 7.037 0 012.748-5.589.497.497 0 01.694.083c.168.213.13.52-.084.688a6.066 6.066 0 00-2.37 4.818c0 3.374 2.772 6.119 6.178 6.119 3.407 0 6.178-2.745 6.178-6.119a6.07 6.07 0 00-2.358-4.81.486.486 0 01-.083-.688.498.498 0 01.694-.081 7.034 7.034 0 012.736 5.579c0 3.914-3.215 7.098-7.166 7.098zm.494-8.114V1.494a.494.494 0 10-.989 0v6.392a.495.495 0 00.989 0z" fill="#999" stroke="#979797" stroke-width=".2"/></svg>