<svg xmlns="http://www.w3.org/2000/svg" width="17" height="18"><g stroke="#999" fill="none" fill-rule="evenodd"><path fill="#FFF" stroke-width=".9" d="M4.36 16.239h6.27c1.106 0 2-.895 2-2v-.03l-.16-10.915A2 2 0 009.999 1.38L3.888 2.862a2 2 0 00-1.529 1.944v9.433a2 2 0 002 2z"/><path fill="#FFF" stroke-width=".9" d="M13.174 3.418a1.546 1.546 0 011.55 1.55h0v9.824a1.546 1.546 0 01-1.55 1.55h0H4.01a1.548 1.548 0 01-1.55-1.55h0V4.968a1.548 1.548 0 011.55-1.55h0z"/><path d="M5.616 13.336h5.953a.316.316 0 010 .63H5.616a.315.315 0 11-.001-.629zm0-1.888h3.32a.314.314 0 010 .629h-3.32a.314.314 0 110-.629zm0-1.889h5.953c.173 0 .314.14.314.315 0 .174-.14.315-.314.315H5.616a.315.315 0 110-.63zm0-1.889h3.32a.315.315 0 010 .63h-3.32a.315.315 0 110-.63zm0-1.889h5.953a.315.315 0 010 .63H5.616a.315.315 0 110-.63z" fill="#999" stroke-width=".3"/></g></svg>